<svg xmlns="http://www.w3.org/2000/svg" width="201" height="60" viewBox="0 0 201 60" fill="none">
  <path d="M 36.084 15.767 L 47.08 4.988 L 55.585 13.326 L 44.59 24.105 L 60.141 24.105 L 60.141 35.896 L 44.59 35.896 L 55.586 46.676 L 47.081 55.014 L 36.084 44.234 L 36.084 59.48 L 24.056 59.48 L 24.056 44.233 L 13.059 55.014 L 4.555 46.676 L 15.551 35.896 L 0 35.896 L 0 24.105 L 15.551 24.105 L 4.555 13.325 L 13.06 4.987 L 24.056 15.767 L 24.056 0.523 L 36.084 0.523 L 36.084 15.767 Z" fill="currentColor" fill-rule="nonzero"></path>
  <path d="M 98.183 14.724 L 102.207 0 L 113.826 3.052 L 109.801 17.776 L 123.269 10.154 L 129.283 20.365 L 115.815 27.988 L 130.836 31.934 L 127.723 43.323 L 112.702 39.378 L 120.478 52.581 L 110.061 58.476 L 102.285 45.272 L 98.26 59.999 L 86.642 56.947 L 90.667 42.221 L 77.199 49.844 L 71.185 39.632 L 84.653 32.01 L 69.632 28.064 L 72.745 16.674 L 87.766 20.62 L 79.991 7.418 L 90.408 1.523 L 98.183 14.724 Z" fill="currentColor" fill-rule="nonzero"></path>
  <path d="M 160.831 17.777 L 156.806 3.053 L 168.424 0.001 L 172.449 14.726 L 180.224 1.523 L 190.641 7.419 L 182.866 20.621 L 197.887 16.675 L 201 28.065 L 185.979 32.011 L 199.447 39.634 L 193.433 49.845 L 179.964 42.222 L 183.989 56.949 L 172.371 60 L 168.346 45.274 L 160.571 58.477 L 150.154 52.581 L 157.93 39.379 L 142.908 43.324 L 139.795 31.935 L 154.816 27.989 L 141.35 20.367 L 147.364 10.155 L 160.831 17.777 Z" fill="currentColor" fill-rule="nonzero"></path>
</svg>