<svg width="48" height="56" viewBox="0 0 48 56" fill="none" xmlns="http://www.w3.org/2000/svg">
<g clip-path="url(#clip0_4_71)">
<path d="M0.0995789 41.7915C0.0995791 32.5237 0.0995791 23.2558 0.133379 13.953C0.251337 13.8747 0.337541 13.835 0.41936 13.7877C6.30761 10.3844 12.1967 6.98267 18.0828 3.57559C20.075 2.42241 22.0595 1.25571 24.0475 0.0951843C24.0475 0.0951843 24.0951 0.0951843 24.1387 0.121048C31.4775 4.36628 38.7717 8.58713 46.0692 12.8026C46.7326 13.1858 47.4162 13.5342 48.0905 13.8988C48.0905 23.1666 48.0905 32.4344 48.0567 41.7373C47.9386 41.8157 47.8526 41.8554 47.7707 41.9027C41.8825 45.306 35.9933 48.7079 30.1074 52.115C28.115 53.2682 26.1306 54.4346 24.1426 55.5952C24.1426 55.5952 24.0951 55.5952 24.0513 55.5693C16.7126 51.3242 9.41826 47.1033 2.12082 42.8877C1.45735 42.5046 0.773803 42.1563 0.0995789 41.7915ZM21.3656 23.6705C21.312 23.8517 21.2116 24.0326 21.2116 24.2138C21.213 31.4958 21.2226 38.7779 21.2333 46.0599C21.2354 47.4878 21.2412 48.9155 21.2602 50.343C21.2622 50.4946 21.3203 50.7186 21.4279 50.7838C22.2745 51.2971 23.1395 51.78 24.1073 52.3343C24.1073 45.0001 24.1073 37.766 24.1073 30.4411C25.0713 31.031 25.9245 31.5691 26.7954 32.077C27.0763 32.2408 27.1698 32.4273 27.1692 32.7512C27.1603 37.3362 27.1661 41.9212 27.1681 46.5063C27.1687 47.8179 27.1681 49.1295 27.1681 50.4371C27.2428 50.4453 27.2802 50.4619 27.3012 50.45C30.0577 48.8686 32.8137 47.2867 35.5651 45.6965C35.656 45.6439 35.7547 45.51 35.7562 45.4123C35.7708 44.4968 35.7648 43.5811 35.7648 42.5829C33.8746 43.5626 32.0505 44.5077 30.1778 45.4783C30.1778 41.6397 30.1778 37.8905 30.1778 34.0695C32.0448 35.1832 33.8667 36.2704 35.7259 37.3797C35.7463 37.2543 35.7637 37.1961 35.764 37.1379C35.7721 34.4728 35.7841 31.8075 35.773 29.1424C35.7724 28.9848 35.6253 28.7628 35.4831 28.68C31.7931 26.5328 28.0929 24.4029 24.4014 22.258C24.1586 22.1167 23.9911 22.1371 23.7669 22.2711C22.9931 22.7333 22.208 23.1761 21.3656 23.6705ZM4.04359 40.7437C4.58332 41.0542 5.12303 41.3648 5.70644 41.7005C5.70644 41.1941 5.73066 40.7645 5.69884 40.3392C5.67307 39.9946 5.78858 39.8077 6.09333 39.6328C9.61582 37.6104 13.1285 35.5709 16.6445 33.5373C16.7755 33.4616 16.9143 33.3992 17.1054 33.3025C17.1054 33.8515 17.1029 34.3383 17.1058 34.8254C17.1312 39.0907 17.1561 43.3562 17.1889 47.6215C17.1903 47.7973 17.209 48.0548 17.3199 48.1347C18.1603 48.7417 19.0258 49.3135 19.9585 49.9476C19.8743 41.2481 19.7909 32.6398 19.7071 23.9833C19.5849 24.0391 19.5279 24.0595 19.476 24.0892C14.0495 27.2072 8.62206 30.3237 3.20391 33.4563C3.05827 33.5404 2.93569 33.7984 2.93343 33.9769C2.91284 35.6099 2.99014 37.2474 2.89488 38.8753C2.83979 39.8166 3.1045 40.4038 4.04359 40.7437ZM37.0668 20.7054C37.0796 17.5654 37.094 14.4255 37.1 11.2856C37.1004 11.1273 37.0781 10.8872 36.9785 10.8238C36.3469 10.4216 35.6903 10.0584 34.9773 9.64478C34.9773 12.417 34.9773 15.0887 34.9773 17.8266C34.3625 17.4564 33.8076 17.1006 33.2313 16.7841C32.9206 16.6135 32.7969 16.4201 32.8011 16.046C32.8279 13.6357 32.8252 11.225 32.8232 8.81448C32.8232 8.65512 32.8007 8.41381 32.7003 8.34992C32.0939 7.96424 31.4618 7.61914 30.8158 7.24749C30.789 7.35636 30.7691 7.3994 30.7691 7.44249C30.7672 11.1219 30.7625 14.8013 30.7795 18.4806C30.7804 18.6326 30.9507 18.8385 31.0973 18.9265C32.2905 19.6416 33.4989 20.3311 34.696 21.0394C34.8143 21.1095 34.9654 21.2497 34.9711 21.3639C34.9996 21.9245 34.9842 22.4873 34.9842 23.1322C31.3324 21.0223 27.7603 18.9584 24.1274 16.8593C24.1274 17.6874 24.1442 18.416 24.1194 19.1433C24.1088 19.453 24.2072 19.6203 24.4772 19.7749C28.537 22.1 32.5901 24.4371 36.6453 26.7703C36.7623 26.8376 36.8854 26.8942 37.0668 26.9868C37.0668 24.8809 37.0668 22.8407 37.0668 20.7054ZM9.17913 11.9808C7.23481 13.1033 5.29485 14.2334 3.3418 15.3404C3.02669 15.519 2.91101 15.7077 2.91211 16.0772C2.92664 20.9156 2.92158 25.754 2.92266 30.5925C2.92268 30.7439 2.93569 30.8955 2.94604 31.1204C3.70841 30.6837 4.40998 30.267 5.12701 29.8788C5.3859 29.7387 5.46897 29.5691 5.46585 29.2796C5.45092 27.8996 5.45587 26.5195 5.46412 25.1393C5.46498 24.9952 5.48765 24.7783 5.57943 24.7197C6.13078 24.3676 6.70527 24.0517 7.32743 23.6914C7.32743 25.3635 7.32743 26.9448 7.32743 28.5914C7.99806 28.2071 8.61584 27.8346 9.25226 27.4974C9.52826 27.3511 9.60826 27.1739 9.60757 26.8664C9.59682 21.9804 9.60016 17.0943 9.59919 12.2083C9.59917 12.0756 9.58689 11.9429 9.57798 11.7627C9.42989 11.8399 9.33497 11.8893 9.17913 11.9808ZM43.6953 17.4943C44.198 17.7772 44.7004 18.0601 45.2688 18.3799C45.2688 17.5191 45.2538 16.7455 45.2763 15.9731C45.2852 15.674 45.1691 15.5289 44.9214 15.3872C42.7673 14.1548 40.6214 12.9077 38.4722 11.6669C38.359 11.6016 38.2358 11.5538 38.0868 11.4834C38.075 11.6006 38.064 11.661 38.0638 11.7214C38.0527 14.3064 38.0374 16.8915 38.045 19.4765C38.0456 19.6329 38.1911 19.8489 38.3316 19.9354C39.584 20.7056 40.8233 21.5046 42.1231 22.1869C42.8564 22.5719 43.1028 23.0312 43.0526 23.8472C42.9743 25.1193 43.032 26.3998 43.032 27.7627C41.3322 26.7883 39.7058 25.8561 38.0293 24.8951C38.0293 25.7129 38.0478 26.4273 38.0209 27.1397C38.0082 27.4696 38.1235 27.641 38.4057 27.8015C40.5493 29.0207 42.6824 30.2579 44.8194 31.488C44.9508 31.5635 45.0894 31.6259 45.2387 31.7016C45.2524 31.6155 45.2664 31.5693 45.2664 31.5231C45.2655 28.129 45.2679 24.735 45.2471 21.341C45.2462 21.175 45.0766 20.9467 44.922 20.8549C43.5084 20.0157 42.0793 19.2028 40.6599 18.3736C40.535 18.3007 40.3578 18.1693 40.3543 18.0603C40.3284 17.2494 40.3401 16.4373 40.3401 15.5709C41.4744 16.2187 42.5563 16.8365 43.6953 17.4943ZM16.1445 9.09488C16.1445 8.73951 16.1445 8.38411 16.1445 7.9538C15.637 8.24578 15.2131 8.51822 14.7636 8.73822C14.4624 8.88569 14.3804 9.07914 14.3815 9.40344C14.3931 12.9082 14.3887 16.4129 14.3887 19.9176C14.3887 20.0543 14.3887 20.1909 14.3887 20.381C14.511 20.3277 14.5818 20.3047 14.645 20.2682C17.1768 18.8055 19.7107 17.3463 22.2321 15.8657C22.3763 15.781 22.4946 15.5207 22.4952 15.3415C22.5105 11.7734 22.507 8.20522 22.5054 4.63706C22.5054 4.53838 22.4855 4.4397 22.4698 4.29427C21.9683 4.58176 21.5297 4.86601 21.0623 5.0902C20.7231 5.25291 20.6425 5.47311 20.6444 5.83235C20.6597 8.71853 20.6557 11.6048 20.6458 14.491C20.6453 14.6561 20.5911 14.8928 20.4763 14.9725C20.0791 15.2483 19.644 15.4695 19.1495 15.7539C19.1495 14.645 19.1495 13.6114 19.1495 12.4949C18.6753 12.7511 18.2857 12.9821 17.8777 13.1742C17.6366 13.2878 17.5792 13.4414 17.5835 13.6932C17.5987 14.5968 17.5935 15.501 17.5847 16.4048C17.5834 16.5325 17.5591 16.7259 17.477 16.7757C17.0656 17.0255 16.6315 17.2377 16.1445 17.4952C16.1445 14.6689 16.1445 11.9289 16.1445 9.09488ZM10.8091 14.4224C10.8091 18.4384 10.8091 22.4544 10.8091 26.4762C10.9075 26.4697 10.9431 26.4777 10.9666 26.4644C14.739 24.3416 18.5108 22.2178 22.2803 20.0898C22.3676 20.0405 22.4906 19.9458 22.4924 19.8697C22.509 19.1857 22.5021 18.5012 22.5021 17.7464C19.3121 19.5424 16.2086 21.2897 13.0216 23.084C13.0216 18.6004 13.0216 14.2132 13.0216 9.77427C12.3404 10.1613 11.7136 10.4949 11.1149 10.8733C10.9662 10.9673 10.8275 11.2038 10.8226 11.3787C10.7947 12.3608 10.8091 13.3442 10.8091 14.4224ZM29.8538 11.9472C29.8491 10.3293 29.835 8.71138 29.8478 7.09367C29.8502 6.78375 29.76 6.61792 29.4884 6.46387C27.811 5.5122 26.1457 4.53896 24.4755 3.57468C24.3764 3.51756 24.2685 3.47622 24.1269 3.40986C24.1269 7.19747 24.1254 10.9244 24.1334 14.6514C24.1336 14.7724 24.1944 14.9477 24.2853 15.005C24.7331 15.2872 25.2004 15.538 25.7429 15.8465C25.7429 15.0442 25.7429 14.3322 25.7429 13.5547C26.4431 13.957 27.0765 14.3077 27.692 14.6877C27.7939 14.7507 27.8638 14.9403 27.8682 15.0741C27.8875 15.6445 27.8658 16.2163 27.8844 16.7867C27.8888 16.9219 27.9538 17.1145 28.0551 17.1774C28.6279 17.5334 29.2202 17.858 29.8542 18.2211C29.8542 16.1186 29.8542 14.0805 29.8538 11.9472ZM39.6326 42.311C39.6326 42.636 39.6326 42.9612 39.6326 43.3506C40.4184 42.8982 41.1338 42.4711 41.8657 42.0735C42.1131 41.9389 42.1806 41.7744 42.1764 41.5078C42.1638 40.731 42.1804 39.9538 42.1815 39.1768C42.1832 37.8816 42.1819 36.5865 42.1819 35.2128C43.239 35.8195 44.2256 36.3858 45.2688 36.9848C45.2688 36.0708 45.2547 35.2467 45.2765 34.4236C45.2841 34.1392 45.1693 34.0069 44.9415 33.8723C42.4648 32.408 39.9947 30.9326 37.5219 29.4616C37.3983 29.3884 37.2658 29.3298 37.0885 29.2394C37.0885 30.1063 37.0741 30.8829 37.1013 31.6579C37.1064 31.8044 37.245 31.9975 37.3775 32.0799C38.0078 32.4724 38.6494 32.8489 39.304 33.1994C39.5667 33.3402 39.6402 33.5082 39.6391 33.7955C39.6284 36.6025 39.6326 39.4097 39.6326 42.311Z" fill="white"/>
<path d="M26.4153 26.091C28.7018 27.4179 30.954 28.735 33.2169 30.0335C33.4876 30.1889 33.5909 30.3536 33.584 30.6629C33.5646 31.5611 33.5772 32.4597 33.5772 33.385C33.469 33.326 33.347 33.2643 33.23 33.1946C30.3218 31.4638 27.4173 29.7267 24.5012 28.0097C24.2103 27.8384 24.1234 27.6545 24.1309 27.3373C24.1504 26.5146 24.1376 25.691 24.1376 24.7712C24.9244 25.2281 25.6543 25.6519 26.4153 26.091Z" fill="white"/>
<path d="M10.9295 34.5538C9.19377 35.5582 7.48945 36.5481 5.7068 37.5833C5.7068 36.6395 5.70052 35.7764 5.71564 34.9137C5.71733 34.8183 5.8203 34.6884 5.9115 34.6358C9.59375 32.5099 13.28 30.3911 16.9661 28.2721C16.9788 28.2648 16.9967 28.2666 17.0949 28.2508C17.0949 28.866 17.0478 29.476 17.1075 30.0754C17.1739 30.7419 16.9494 31.1075 16.3432 31.4367C14.524 32.4246 12.7516 33.4985 10.9295 34.5538Z" fill="white"/>
<path d="M7.31871 19.7966C7.47692 20.5775 7.15948 21.017 6.48393 21.2824C6.15204 21.4127 5.85435 21.6305 5.49574 21.8346C5.47955 21.6875 5.45883 21.5862 5.45868 21.485C5.45653 20.1228 5.44682 18.7605 5.47002 17.3987C5.47303 17.2228 5.60714 16.986 5.75405 16.8874C6.235 16.5644 6.74992 16.2922 7.31871 15.9615C7.31871 17.2675 7.31871 18.5086 7.31871 19.7966Z" fill="white"/>
<path d="M25.7228 10.8457C25.7228 9.5977 25.7228 8.39637 25.7228 7.09998C26.4497 7.52184 27.1221 7.90686 27.786 8.30608C27.8444 8.34124 27.8718 8.46929 27.8722 8.55436C27.8773 9.97437 27.8758 11.3944 27.8758 12.8909C27.1676 12.482 26.4911 12.1441 25.8856 11.7074C25.7213 11.5889 25.7712 11.1722 25.7228 10.8457Z" fill="white"/>
</g>
<defs>
<clipPath id="clip0_4_71">
<rect width="48" height="55.5" fill="white"/>
</clipPath>
</defs>
</svg>
