<svg width="166" height="54" viewBox="0 0 166 54" fill="none" xmlns="http://www.w3.org/2000/svg">
<path d="M19.035 52.2H18.252L20.844 45.9H21.609L24.21 52.2H23.427L22.689 50.4H19.773L19.035 52.2ZM21.231 46.863L20.061 49.716H22.401L21.231 46.863ZM28.7224 52.2H27.9664V45.9H30.9454C32.2594 45.9 32.9614 46.737 32.9614 47.745C32.9614 49.023 32.0614 49.707 30.9454 49.707H28.7224V52.2ZM28.7224 46.593V49.014H30.9814C31.7644 49.014 32.1874 48.447 32.1874 47.745C32.1874 46.998 31.6474 46.593 30.9814 46.593H28.7224ZM36.0276 52.299C34.8666 52.299 34.2006 51.588 34.2006 50.616V47.43H34.9476V50.589C34.9476 51.273 35.4246 51.642 36.0996 51.642C36.9906 51.642 37.4766 51.048 37.4856 50.328V47.43H38.2326V52.2H37.6386L37.5756 51.48C37.2606 52.02 36.6846 52.299 36.0276 52.299ZM42.2666 52.299C41.4836 52.299 40.8446 51.912 40.5206 51.291L40.4396 52.2H39.8456V45.45H40.5926V48.177C40.9436 47.655 41.5466 47.322 42.2666 47.322C43.5266 47.322 44.4086 48.33 44.4086 49.788C44.4086 51.273 43.5266 52.299 42.2666 52.299ZM42.1496 51.651C43.0316 51.651 43.6346 50.886 43.6346 49.788C43.6346 48.717 43.0316 47.97 42.1406 47.97C41.2406 47.97 40.5926 48.699 40.5926 49.752C40.5926 50.868 41.2406 51.651 42.1496 51.651ZM46.5249 52.2H45.7779V45.45H46.5249V52.2ZM48.5104 46.629C48.1954 46.629 47.9524 46.386 47.9524 46.071C47.9524 45.756 48.1954 45.522 48.5104 45.522C48.8254 45.522 49.0594 45.756 49.0594 46.071C49.0594 46.386 48.8254 46.629 48.5104 46.629ZM48.8794 52.2H48.1324V47.43H48.8794V52.2ZM52.5941 52.299C51.0461 52.299 50.2181 51.165 50.2181 49.788C50.2181 48.186 51.2711 47.322 52.5671 47.322C53.7641 47.322 54.6191 48.042 54.7541 49.266H54.0251C53.8991 48.474 53.3501 47.97 52.5491 47.97C51.6041 47.97 50.9741 48.663 50.9741 49.788C50.9741 51.003 51.7121 51.651 52.6031 51.651C53.3681 51.651 53.8901 51.165 54.0251 50.337H54.7541C54.6191 51.57 53.8271 52.299 52.5941 52.299ZM61.59 52.2H58.629V45.9H61.518C62.616 45.9 63.381 46.548 63.381 47.484C63.381 48.159 62.904 48.717 62.166 48.951C62.985 49.113 63.525 49.707 63.525 50.481C63.525 51.498 62.733 52.2 61.59 52.2ZM59.376 46.593V48.654H61.473C62.148 48.654 62.616 48.204 62.616 47.565C62.616 46.989 62.193 46.593 61.59 46.593H59.376ZM59.376 49.329V51.507H61.671C62.301 51.507 62.742 51.057 62.742 50.4C62.742 49.698 62.193 49.329 61.518 49.329H59.376ZM67.068 52.299C65.655 52.299 64.719 51.264 64.719 49.833C64.719 48.204 65.772 47.322 66.978 47.322C68.292 47.322 69.138 48.204 69.165 49.734V49.941H65.466C65.511 50.958 66.105 51.651 67.068 51.651C67.734 51.651 68.22 51.318 68.418 50.697H69.147C68.931 51.678 68.157 52.299 67.068 52.299ZM65.511 49.32H68.382C68.247 48.483 67.743 47.97 66.978 47.97C66.222 47.97 65.664 48.465 65.511 49.32ZM71.2545 52.2H70.5075V47.43H71.1015L71.1735 48.159C71.4975 47.655 72.1185 47.322 72.8295 47.322C73.8555 47.322 74.5395 47.988 74.5395 49.041V52.2H73.7925V49.068C73.7925 48.402 73.3605 47.979 72.6405 47.979C71.7855 47.979 71.2635 48.573 71.2545 49.302V52.2ZM78.1767 52.299C76.7637 52.299 75.8277 51.264 75.8277 49.833C75.8277 48.204 76.8807 47.322 78.0867 47.322C79.4007 47.322 80.2467 48.204 80.2737 49.734V49.941H76.5747C76.6197 50.958 77.2137 51.651 78.1767 51.651C78.8427 51.651 79.3287 51.318 79.5267 50.697H80.2557C80.0397 51.678 79.2657 52.299 78.1767 52.299ZM76.6197 49.32H79.4907C79.3557 48.483 78.8517 47.97 78.0867 47.97C77.3307 47.97 76.7727 48.465 76.6197 49.32ZM82.7712 52.2H82.0242V48.06H81.1422V47.43H82.0242V46.764C82.0242 45.909 82.5012 45.45 83.3832 45.45H84.4452V46.08H83.3832C82.9872 46.08 82.7712 46.323 82.7712 46.764V47.43H84.3192V48.06H82.7712V52.2ZM85.8698 46.629C85.5548 46.629 85.3118 46.386 85.3118 46.071C85.3118 45.756 85.5548 45.522 85.8698 45.522C86.1848 45.522 86.4188 45.756 86.4188 46.071C86.4188 46.386 86.1848 46.629 85.8698 46.629ZM86.2388 52.2H85.4918V47.43H86.2388V52.2ZM90.3046 52.2H89.7736C88.8466 52.2 88.3516 51.723 88.3516 50.841V48.06H87.4696V47.43H88.3516V45.801H89.0986V47.43H90.3856V48.06H89.0986V50.841C89.0986 51.318 89.3326 51.57 89.7736 51.57H90.3046V52.2ZM96.9504 52.299C95.0154 52.299 93.8724 50.94 93.8724 49.032C93.8724 47.16 95.0154 45.801 96.9504 45.801C98.5524 45.801 99.6504 46.737 99.9204 48.321H99.1374C98.9034 47.169 98.0934 46.494 96.9504 46.494C95.5374 46.494 94.6644 47.475 94.6644 49.032C94.6644 50.643 95.5374 51.606 96.9504 51.606C98.1294 51.606 98.8944 50.967 99.1374 49.779H99.9204C99.6414 51.417 98.5974 52.299 96.9504 52.299ZM103.469 52.299C101.939 52.299 101.129 51.21 101.129 49.77C101.129 48.177 102.173 47.322 103.469 47.322C104.99 47.322 105.809 48.42 105.809 49.77C105.809 51.417 104.81 52.299 103.469 52.299ZM103.469 51.651C104.486 51.651 105.044 50.805 105.044 49.77C105.044 48.699 104.423 47.97 103.469 47.97C102.515 47.97 101.894 48.699 101.894 49.77C101.894 50.994 102.605 51.651 103.469 51.651ZM107.893 52.2H107.146V47.43H107.74L107.83 48.339C108.136 47.727 108.694 47.403 109.486 47.403H109.648V48.141H109.486C108.478 48.141 107.893 48.717 107.893 49.698V52.2ZM111.629 54H110.882V47.43H111.476L111.557 48.294C111.899 47.7 112.529 47.322 113.303 47.322C114.563 47.322 115.445 48.33 115.445 49.788C115.445 51.273 114.563 52.299 113.303 52.299C112.574 52.299 111.971 51.966 111.629 51.408V54ZM113.186 51.651C114.068 51.651 114.671 50.886 114.671 49.788C114.671 48.717 114.068 47.97 113.177 47.97C112.277 47.97 111.629 48.699 111.629 49.752C111.629 50.868 112.277 51.651 113.186 51.651ZM118.884 52.299C117.354 52.299 116.544 51.21 116.544 49.77C116.544 48.177 117.588 47.322 118.884 47.322C120.405 47.322 121.224 48.42 121.224 49.77C121.224 51.417 120.225 52.299 118.884 52.299ZM118.884 51.651C119.901 51.651 120.459 50.805 120.459 49.77C120.459 48.699 119.838 47.97 118.884 47.97C117.93 47.97 117.309 48.699 117.309 49.77C117.309 50.994 118.02 51.651 118.884 51.651ZM123.308 52.2H122.561V47.43H123.155L123.245 48.339C123.551 47.727 124.109 47.403 124.901 47.403H125.063V48.141H124.901C123.893 48.141 123.308 48.717 123.308 49.698V52.2ZM127.712 52.272C126.632 52.272 125.939 51.714 125.939 50.841C125.939 49.743 127.001 49.536 127.955 49.437C128.684 49.365 129.314 49.374 129.323 48.987C129.314 48.384 128.819 47.961 128.099 47.961C127.406 47.961 126.866 48.348 126.785 48.915H126.047C126.137 47.979 126.983 47.322 128.117 47.322C129.296 47.322 130.052 48.024 130.052 49.032V51.354C130.052 51.507 130.133 51.588 130.295 51.588H130.565V52.2H130.142C129.629 52.2 129.359 51.966 129.359 51.525V51.381C129.08 51.93 128.54 52.272 127.712 52.272ZM127.82 51.633C128.711 51.633 129.323 51.066 129.323 50.274V49.653C129.116 49.932 128.585 49.986 128 50.049C127.343 50.121 126.686 50.211 126.686 50.823C126.686 51.318 127.136 51.633 127.82 51.633ZM134.124 52.2H133.593C132.666 52.2 132.171 51.723 132.171 50.841V48.06H131.289V47.43H132.171V45.801H132.918V47.43H134.205V48.06H132.918V50.841C132.918 51.318 133.152 51.57 133.593 51.57H134.124V52.2ZM135.823 46.629C135.508 46.629 135.265 46.386 135.265 46.071C135.265 45.756 135.508 45.522 135.823 45.522C136.138 45.522 136.372 45.756 136.372 46.071C136.372 46.386 136.138 46.629 135.823 46.629ZM136.192 52.2H135.445V47.43H136.192V52.2ZM139.871 52.299C138.341 52.299 137.531 51.21 137.531 49.77C137.531 48.177 138.575 47.322 139.871 47.322C141.392 47.322 142.211 48.42 142.211 49.77C142.211 51.417 141.212 52.299 139.871 52.299ZM139.871 51.651C140.888 51.651 141.446 50.805 141.446 49.77C141.446 48.699 140.825 47.97 139.871 47.97C138.917 47.97 138.296 48.699 138.296 49.77C138.296 50.994 139.007 51.651 139.871 51.651ZM144.295 52.2H143.548V47.43H144.142L144.214 48.159C144.538 47.655 145.159 47.322 145.87 47.322C146.896 47.322 147.58 47.988 147.58 49.041V52.2H146.833V49.068C146.833 48.402 146.401 47.979 145.681 47.979C144.826 47.979 144.304 48.573 144.295 49.302V52.2Z" fill="black"/>
<path d="M12.528 17.712C12.528 14.784 11.28 12.384 7.92 12.384C5.664 12.384 3.744 14.064 2.592 16.656L1.728 16.32C2.88 12.912 5.904 10.56 9.216 10.56C12.816 10.56 15.264 12.96 15.264 17.232V27.648C15.264 29.28 16.176 30.048 17.04 30.048C17.904 30.048 18.384 29.712 19.104 28.896L19.632 29.472C18.816 30.72 17.616 31.68 16.224 31.68C14.304 31.68 12.912 30.336 12.528 28.416C11.232 29.952 9.12 31.68 6.432 31.68C3.936 31.68 1.536 30.096 1.536 27.168C1.536 24.48 3.792 22.896 7.2 21.696L12.528 19.824V17.712ZM12.528 21.024L7.68 22.8C5.904 23.424 4.272 24.576 4.272 26.688C4.272 28.8 5.712 30.048 7.92 30.048C9.648 30.048 11.28 29.04 12.528 27.6V21.024ZM22.311 3.504C22.311 1.15199 21.735 1.008 18.663 1.008V-4.76837e-06H25.095V27.792C25.095 30.144 25.815 30.192 28.215 30.192V31.2H19.143V30.192C21.591 30.192 22.311 30.144 22.311 27.792V3.504ZM48.0094 31.68L43.2574 18.48L38.2174 31.68H37.8334L31.3054 14.592C30.4894 12.432 30.2974 12.048 27.8494 12.048V11.04H36.9694V12.048C35.1934 12.048 33.8974 12.096 33.8974 13.344C33.8974 13.68 33.9934 14.064 34.1854 14.592L38.7454 27.072L42.6334 16.752L41.8654 14.592C41.0494 12.336 40.8574 12.048 38.4094 12.048V11.04H47.0974V12.048C45.2734 12.048 44.2654 12.192 44.2654 13.344C44.2654 13.68 44.3134 14.064 44.5054 14.592L48.7294 27.024L52.9054 14.304C53.0014 13.968 53.0974 13.632 53.0974 13.392C53.0974 12.288 51.9934 12.048 50.3134 12.048V11.04H57.7054V12.048C55.2574 12.048 55.1614 12.288 54.4414 14.304L48.3934 31.68H48.0094ZM68.5436 17.712C68.5436 14.784 67.2956 12.384 63.9356 12.384C61.6796 12.384 59.7596 14.064 58.6076 16.656L57.7436 16.32C58.8956 12.912 61.9196 10.56 65.2316 10.56C68.8316 10.56 71.2796 12.96 71.2796 17.232V27.648C71.2796 29.28 72.1916 30.048 73.0556 30.048C73.9196 30.048 74.3996 29.712 75.1196 28.896L75.6476 29.472C74.8316 30.72 73.6316 31.68 72.2396 31.68C70.3196 31.68 68.9276 30.336 68.5436 28.416C67.2476 29.952 65.1356 31.68 62.4476 31.68C59.9516 31.68 57.5516 30.096 57.5516 27.168C57.5516 24.48 59.8076 22.896 63.2156 21.696L68.5436 19.824V17.712ZM68.5436 21.024L63.6956 22.8C61.9196 23.424 60.2876 24.576 60.2876 26.688C60.2876 28.8 61.7276 30.048 63.9356 30.048C65.6636 30.048 67.2956 29.04 68.5436 27.6V21.024ZM79.6451 40.8L74.9891 40.08V39.504C78.2051 39.408 81.0371 36.432 83.9651 30.576L77.1491 14.592C76.2371 12.432 76.0451 12.048 73.6931 12.048V11.04H82.8611V12.048C80.9891 12.048 79.7411 12.144 79.7411 13.344C79.7411 13.68 79.8371 14.064 80.0291 14.592L85.2131 27.36L90.2531 14.256C90.3971 13.872 90.4451 13.536 90.4451 13.296C90.4451 12.24 89.3891 12.048 87.7571 12.048V11.04H95.1971V12.048C92.7491 12.048 92.6051 12.288 91.7891 14.304L85.5491 29.616C83.2451 35.328 80.9411 39.552 79.6451 40.8ZM102.575 30.432C105.071 30.432 106.655 29.184 106.655 26.784C106.655 25.104 105.551 24.288 103.823 23.376L100.319 21.6C98.1593 20.496 96.1433 19.008 96.1433 16.272C96.1433 12.96 98.7833 10.56 102.191 10.56C104.207 10.56 105.695 11.616 106.415 11.616C106.895 11.616 107.087 11.28 107.327 10.704H107.903L108.287 16.8L107.519 16.896C106.751 13.2 104.255 11.712 102.143 11.712C99.7433 11.712 98.3993 13.2 98.3993 15.264C98.3993 17.136 99.6953 18.048 101.615 19.008L104.687 20.544C106.895 21.648 108.959 22.992 108.959 26.016C108.959 29.136 106.223 31.68 102.623 31.68C99.6953 31.68 98.1593 30.048 97.4873 30.048C97.0073 30.048 96.5753 30.72 96.4793 31.344H95.8553L95.5673 24.528H96.4313C96.9113 27.696 99.2153 30.432 102.575 30.432ZM130.137 17.712C130.137 14.784 128.889 12.384 125.529 12.384C123.273 12.384 121.353 14.064 120.201 16.656L119.337 16.32C120.489 12.912 123.513 10.56 126.825 10.56C130.425 10.56 132.873 12.96 132.873 17.232V27.648C132.873 29.28 133.785 30.048 134.649 30.048C135.513 30.048 135.993 29.712 136.713 28.896L137.241 29.472C136.425 30.72 135.225 31.68 133.833 31.68C131.913 31.68 130.521 30.336 130.137 28.416C128.841 29.952 126.729 31.68 124.041 31.68C121.545 31.68 119.145 30.096 119.145 27.168C119.145 24.48 121.401 22.896 124.809 21.696L130.137 19.824V17.712ZM130.137 21.024L125.289 22.8C123.513 23.424 121.881 24.576 121.881 26.688C121.881 28.8 123.321 30.048 125.529 30.048C127.257 30.048 128.889 29.04 130.137 27.6V21.024ZM147.072 30.192V31.2H137.04V30.192C139.44 30.192 140.208 30.144 140.208 27.792V14.448C140.208 12.096 139.44 12.048 137.04 12.048V11.04H142.944V14.88C144.672 12.624 146.352 10.56 148.08 10.56C149.664 10.56 151.344 12.048 151.92 13.296L149.712 15.408H149.616C148.992 14.064 147.984 12.816 146.64 12.816C145.44 12.816 144.48 13.872 142.944 15.744V27.792C142.944 30.144 143.904 30.192 147.072 30.192ZM152.454 12C154.806 10.128 156.294 8.352 157.782 6.24H158.118V11.136C159.654 11.136 163.782 11.088 165.174 10.944L164.886 12.528H158.118V25.728C158.118 28.08 159.126 29.904 161.574 29.904C163.062 29.904 164.214 29.28 165.222 27.84L165.894 28.368C164.454 30.576 162.678 31.68 160.23 31.68C157.59 31.68 155.382 29.712 155.382 26.784L155.526 12.528H152.454V12Z" fill="black"/>
</svg>
